<?xml version="1.0" encoding="utf-8"?>
<!-- Generator: Adobe Illustrator 26.4.1, SVG Export Plug-In . SVG Version: 6.00 Build 0)  -->
<svg version="1.1" id="Layer_1" xmlns="http://www.w3.org/2000/svg" xmlns:xlink="http://www.w3.org/1999/xlink" x="0px" y="0px"
	 viewBox="0 0 1400 1445.9" style="enable-background:new 0 0 1400 1445.9;" xml:space="preserve">
<style type="text/css">
	.st0{fill:#01C795;}
	.st1{fill:#019570;}
	.st2{fill:#3874EB;}
	.st3{fill:#FFFFFF;}
	.st4{fill:#082947;}
	.st5{fill:#D3D3D3;}
	.st6{fill:#A8A8A8;}
	.st7{fill:#BFBFBF;}
	.st8{fill:#CECECE;}
	.st9{opacity:0.5;fill:#FFFFFF;enable-background:new    ;}
	.st10{opacity:0.2;fill:#FFFFFF;enable-background:new    ;}
	.st11{fill:#01C593;}
	.st12{fill:#999999;}
	.st13{fill:#3874E9;}
	.st14{fill:#DBDBDB;}
	.st15{fill:#C7C7C7;}
	.st16{fill:#0099CF;}
	.st17{fill:#CCCCCC;}
	.st18{fill:#9DD7EB;}
	.st19{fill:#BBE7F7;}
	.st20{fill:#6999FF;}
	.st21{fill:#01C694;}
	.st22{fill:#01956F;}
	.st23{fill:#4381FF;}
	.st24{opacity:0.75;fill:#FFFFFF;enable-background:new    ;}
	.st25{fill:#3874EA;}
	.st26{fill:#DCDCDC;}
	.st27{fill:#0083C5;}
	.st28{fill:#DFE6FA;}
	.st29{fill:#E4E4E4;}
	.st30{fill:#AEC6F6;}
	.st31{fill:#A9A9A9;}
	.st32{opacity:0.7;fill:#FFFFFF;enable-background:new    ;}
	.st33{opacity:0.3;fill:#FFFFFF;enable-background:new    ;}
	.st34{fill:#1CBFE5;}
	.st35{fill:#75E6F9;}
	.st36{fill:#8DEFFF;}
	.st37{fill:#699BFF;}
	.st38{fill:#E0E7FB;}
	.st39{fill:#124368;}
	.st40{fill:#65DBEF;}
	.st41{fill:#01644B;}
	.st42{fill:#D8E1FA;}
	.st43{fill:#88ACF3;}
	.st44{opacity:0.4;fill:#BFBFBF;enable-background:new    ;}
	.st45{fill:#323651;}
	.st46{fill:#CFDEFA;}
	.st47{fill:#8E8E8E;}
	.st48{fill:#BCBEC0;}
	.st49{fill:#D1D3D4;}
	.st50{fill:#A7A9AC;}
	.st51{fill:#808285;}
</style>
<g>
	<g>
		<path class="st21" d="M1191.7,651.3c34.7-29.5,42.8-68.5,42.8-68.5s-56.8,29-86.4,24.7c-29.7-4.4-40.7-34.5,8.8-29.1
			c49.6,5.4,81.4,0.3,87.5-29.5s1.1-48.2,1.1-48.2s-19.7,35.3-50.9,40.8c-31.2,5.6-59.5-7-22.2-18.1s52.3,2.7,64.9-26.5
			c12.6-29.1,4.9-41.1,4.9-41.1s-18.5,15.9-38.6,26.7c-20.1,10.8-34.7,4.4-20.2-9.1s47.3-22,45.8-32.3c-1.4-10.3-25-21.3-28.9-46.1
			c-3.9-24.8,5.8-34.9,5.8-34.9s-25.6,14.5-53.2,14.9s-45.8-3.1-45.6,25.3c0.2,28.4,1.4,42.1-8.9,57.3c-10.3,15.2-25.5,19-23.6-13.1
			s15.9-56.4,15.9-56.4s-29.9,1-65.7,25.1c-35.8,24-46.5,43.5-33.1,70.1s54,62,39.2,78.7c-14.8,16.7-41.9-19.7-52.1-42
			c-10.2-22.2-12.6-39.8-12.6-39.8s-35.1,20.1-24.3,76.5c10.7,56.5,47.2,72.7,94.4,65.4c0,0-1.8,47.8,38.1,62
			C1114.6,698.4,1157,680.8,1191.7,651.3z M1127.8,415.3c-3.3-23.4,9.7-22.7,15-22.1l-0.5,0.1c10.4,1.9,11.8,11.8,7.8,25.6
			C1146.2,432.9,1131.1,438.7,1127.8,415.3z M1028.5,472.7c-7.1-16.1,3.5-23.4,8.4-26.4c0,0,10.4,1.6,13,16.5
			C1052.5,477.8,1035.7,488.8,1028.5,472.7z M1175.5,430.3c8.7-12.2,12.6-6.7,19-4.8c8.8,2.7,9.1,11.3-3.4,16.9
			C1178.6,448.1,1166.9,442.5,1175.5,430.3z M1062.8,487.5c15.7-4.8,25.5,25.6,7.9,31.5C1053.2,524.8,1046.5,492.5,1062.8,487.5z
			 M1139.6,508.8c-11.5-2.6-15.5-10,1.3-15.6c0,0,11.7-4.1,15-0.5C1159.3,496.4,1151.1,511.4,1139.6,508.8z M966.5,568.6
			c9.6-11.2,34.1,7.6,27.5,17.6C987.5,596.2,957.8,578.7,966.5,568.6z M1047.8,577.9c-13-10.4,4.7-27.9,17.1-22.2
			C1075.3,560.6,1060.8,588.3,1047.8,577.9z M1151.3,628c11.2,9.3,23,2.9,25.6,12.2c2.5,9.4-25.9,11.1-40,7s-26.5-17.6-20.2-25.9
			C1125.4,609.9,1140.1,618.7,1151.3,628z M1069.3,648.4c-12-20.8,15.6-31.8,21-0.7c2,11.6,24.6,10.5,21.6,18.6
			C1109,674.4,1081.3,669.3,1069.3,648.4z"/>
		<path class="st22" d="M1126.1,493.2c3.3-7,6.4-14,9.4-20.7c3.1-6.7,6.2-13.2,9.3-19.3c6.2-12.3,12.3-23.4,17.9-32.5
			c5.6-9.2,10.5-16.4,14.2-21.3c3.6-4.9,5.9-7.5,5.9-7.5s-2.4,2.5-6.2,7.3c-3.8,4.8-9.1,11.9-15,20.8c-5.9,9-12.5,19.8-19.2,32
			c-3.3,6.1-6.7,12.5-10,19.1c-3.3,6.7-6.6,13.5-10.1,20.3c-7,13.7-14.5,27.6-22.3,40.9c-7.8,13.3-15.9,26-23.9,37.4
			s-15.8,21.5-22.9,29.9c-7.1,8.4-13.3,15-17.9,19.7c-1.2,1.2-2.4,2.4-3.5,3.6c1.5-0.2,3.1-0.4,4.6-0.6c0,0-0.1,2.9,0.3,7.5
			c1.5-1.5,3-3,4.5-4.6c4.7-4.8,11-11.7,18-20.4c7.1-8.7,14.8-19.2,22.6-31.1c7.8-11.8,15.6-24.9,23-38.6
			C1112.5,521.4,1119.6,507.2,1126.1,493.2z"/>
	</g>
	<g>
		<path class="st4" d="M1026.5,653.8c0,6.7-5.5,12.2-12.2,12.2H515.9c-6.7,0-12.2-5.5-12.2-12.2V126.1c0-6.7,5.5-12.2,12.2-12.2
			h498.4c6.7,0,12.2,5.5,12.2,12.2V653.8z"/>
		<g>
			<g>
				<polygon class="st3" points="664.3,313.2 705.5,264.5 683.8,246.1 626.9,313.3 684,380.3 705.7,361.8 				"/>
				<polygon class="st3" points="865.9,312.8 824.5,264.3 846.2,245.7 903.3,312.8 846.4,380 824.7,361.5 				"/>
			</g>
			
				<rect x="676.7" y="298.7" transform="matrix(0.4035 -0.915 0.915 0.4035 169.9932 886.8324)" class="st3" width="177" height="28.6"/>
		</g>
		<path class="st23" d="M1014.3,114H515.9c-6.7,0-12.2,5.5-12.2,12.2V170h522.7v-43.8C1026.5,119.4,1021,114,1014.3,114z"/>
		<path class="st3" d="M1003.9,142c0-6.9-5.6-12.6-12.6-12.6c-6.9,0-12.6,5.6-12.6,12.6c0,6.9,5.6,12.6,12.6,12.6
			C998.2,154.5,1003.9,148.9,1003.9,142z"/>
		<path class="st24" d="M940.6,142c0-6.9-5.6-12.6-12.6-12.6c-6.9,0-12.6,5.6-12.6,12.6c0,6.9,5.6,12.6,12.6,12.6
			C935,154.5,940.6,148.9,940.6,142z"/>
		<path class="st9" d="M877.4,142c0-6.9-5.6-12.6-12.6-12.6c-6.9,0-12.6,5.6-12.6,12.6c0,6.9,5.6,12.6,12.6,12.6
			C871.7,154.5,877.4,148.9,877.4,142z"/>
	</g>
	<g>
		<path class="st25" d="M1050.6,658.9c-3.8,0-7.6,0.4-11.2,1c-3.3-68.5-59.9-123.1-129.2-123.1c-5.1,0-10.1,0.3-15,0.9
			c-11.1-61.7-65.1-108.6-130-108.6s-118.9,46.9-130,108.6c-4.9-0.6-10-0.9-15-0.9c-69.3,0-125.9,54.5-129.2,123.1
			c-3.6-0.7-7.4-1-11.2-1c-34,0-61.6,27.6-61.6,61.6s27.6,61.6,61.6,61.6h570.9c34,0,61.6-27.6,61.6-61.6
			C1112.2,686.5,1084.6,658.9,1050.6,658.9z"/>
		<path class="st26" d="M1065,780.4v-36.6h42.6c0.9-2.2,1.7-4.4,2.3-6.7H1065v-47.2h39c-1.3-2.3-2.8-4.6-4.5-6.7H1065v-22.5
			c-2.2-0.5-4.4-0.9-6.7-1.2v23.8h-47.2v-47.2h24.9c-0.5-2.3-1.1-4.5-1.8-6.7h-23v-43.9c-2.8-3.5-5.8-6.8-8.9-10h-45v-29.6
			c-2.2-0.9-4.5-1.7-6.7-2.4v32.1h-47.2v-38.3c-2.3,0.1-4.5,0.3-6.7,0.5v37.7h-47.2v-47.2h43.7c-0.6-2.3-1.2-4.5-1.9-6.7h-41.7
			v-47.2h15.2c-2-2.3-4.1-4.6-6.3-6.7h-8.8v-8c-2.2-1.8-4.4-3.6-6.7-5.2v13.2h-47.2v-34.9c-2.2-0.5-4.5-1-6.7-1.4v36.3h-47.2v-36.3
			c-2.3,0.4-4.5,0.9-6.7,1.4v34.9H688v-13.2c-2.3,1.7-4.5,3.4-6.7,5.2v8h-8.8c-2.2,2.2-4.3,4.4-6.3,6.7h15.2v47.2h-41.7
			c-0.7,2.2-1.3,4.5-1.9,6.7h43.7v47.2h-47.8v-37.7c-2.2-0.2-4.5-0.4-6.7-0.5v38.3h-47.2v-32.1c-2.3,0.7-4.5,1.6-6.7,2.4v29.6h-45
			c-3.1,3.2-6.1,6.5-8.9,10v43.9h-23c-0.7,2.2-1.3,4.5-1.8,6.7h24.8v47.2H472v-23.8c-2.3,0.3-4.5,0.7-6.7,1.2v22.5h-34.6
			c-1.6,2.1-3.1,4.4-4.5,6.7h39v47.2h-44.9c0.6,2.3,1.4,4.5,2.3,6.7h42.6v36.6c2.2,0.5,4.4,0.9,6.7,1.2v-37.8h47.2v38.4h6.7v-38.4
			H573v38.4h6.7v-38.4h47.2v38.4h6.7v-38.4h47.2v38.4h6.7v-38.4h47.2v38.4h6.7v-38.4h47.3v38.4h6.7v-38.4h47.2v38.4h6.7v-38.4h47.2
			v38.4h6.7v-38.4h47.2v38.4h6.7v-38.4h47.2v38.4h6.7v-38.4h47.2v37.9C1060.6,781.4,1062.8,781,1065,780.4z M519.1,737.1h-47.2
			v-47.2h47.2V737.1z M573,737.1h-47.2v-47.2H573V737.1z M573,683.1h-47.2v-47.2H573V683.1z M573,629.2h-47.2V582H573V629.2z
			 M627,737.1h-47.2v-47.2H627V737.1z M627,683.1h-47.2v-47.2H627V683.1z M627,629.2h-47.2V582H627V629.2z M680.9,737.1h-47.2v-47.2
			h47.2V737.1z M680.9,683.1h-47.2v-47.2h47.2V683.1z M680.9,629.2h-47.2V582h47.2V629.2z M734.8,737.1h-47.2v-47.2h47.2V737.1z
			 M734.8,683.1h-47.2v-47.2h47.2V683.1z M734.8,629.2h-47.2V582h47.2V629.2z M734.8,575.3h-47.2v-47.2h47.2V575.3z M734.8,521.4
			h-47.2v-47.2h47.2V521.4z M788.7,737.1h-47.2v-47.2h47.2V737.1z M788.7,683.1h-47.2v-47.2h47.2V683.1z M788.7,629.2h-47.2V582
			h47.2V629.2z M788.7,575.3h-47.2v-47.2h47.2V575.3z M788.7,521.4h-47.2v-47.2h47.2V521.4z M842.6,737.1h-47.2v-47.2h47.2V737.1z
			 M842.6,683.1h-47.2v-47.2h47.2V683.1z M842.6,629.2h-47.2V582h47.2V629.2z M842.6,575.3h-47.2v-47.2h47.2V575.3z M842.6,521.4
			h-47.2v-47.2h47.2V521.4z M896.5,737.1h-47.2v-47.2h47.2V737.1z M896.5,683.1h-47.2v-47.2h47.2V683.1z M896.5,629.2h-47.2V582
			h47.2V629.2z M950.5,737.1h-47.2v-47.2h47.2V737.1z M950.5,683.1h-47.2v-47.2h47.2V683.1z M950.5,629.2h-47.2V582h47.2V629.2z
			 M1004.4,737.1h-47.2v-47.2h47.2V737.1z M1004.4,683.1h-47.2v-47.2h47.2V683.1z M1004.4,629.2h-47.2V582h47.2V629.2z
			 M1011.1,737.1v-47.2h47.2v47.2H1011.1z"/>
	</g>
	<path class="st27" d="M978.9,763.8v-4.4v-2.3c0-10.1-8.3-18.4-18.4-18.4h-4H930H600h-26.5h-4c-10.1,0-18.4,8.3-18.4,18.4v2.3v4.4
		c0,10.1-8.3,18.4-18.4,18.4h40.7h383h40.7C987.2,782.2,978.9,773.9,978.9,763.8z"/>
	<g>
		<path class="st28" d="M952.2,1329.7l-0.1-85.6V738.7H593.7v505.5v38.6v47c0,40.8,33.1,73.9,74,73.9h358.5
			C985.3,1403.6,952.2,1370.5,952.2,1329.7z"/>
		<g>
			<g>
				<path class="st4" d="M734.4,771.1c0,1.4,1.1,2.5,2.5,2.5h55.4c1.4,0,2.5-1.1,2.5-2.5v-8.2c0-1.4-1.1-2.5-2.5-2.5h-55.4
					c-1.4,0-2.5,1.1-2.5,2.5V771.1z"/>
				<path class="st4" d="M804.8,771.1c0,1.4,1.1,2.5,2.5,2.5h18.6c1.4,0,2.5-1.1,2.5-2.5v-8.2c0-1.4-1.1-2.5-2.5-2.5h-18.6
					c-1.4,0-2.5,1.1-2.5,2.5V771.1z"/>
				<path class="st4" d="M724.3,762.9c0-1.4-1.1-2.5-2.5-2.5H616.6c-1.4,0-2.5,1.1-2.5,2.5v8.2c0,1.4,1.1,2.5,2.5,2.5h105.2
					c1.4,0,2.5-1.1,2.5-2.5L724.3,762.9L724.3,762.9z"/>
			</g>
			<g>
				<path class="st23" d="M691.9,801.6c0,1.4,1.1,2.5,2.5,2.5h47.2c1.4,0,2.5-1.1,2.5-2.5v-8.2c0-1.4-1.1-2.5-2.5-2.5h-47.2
					c-1.4,0-2.5,1.1-2.5,2.5V801.6z"/>
				<path class="st23" d="M754.1,801.6c0,1.4,1.1,2.5,2.5,2.5h54.8c1.4,0,2.5-1.1,2.5-2.5v-8.2c0-1.4-1.1-2.5-2.5-2.5h-54.8
					c-1.4,0-2.5,1.1-2.5,2.5V801.6z"/>
				<path class="st23" d="M681.8,793.3c0-1.4-1.1-2.5-2.5-2.5h-62.7c-1.4,0-2.5,1.1-2.5,2.5v8.2c0,1.4,1.1,2.5,2.5,2.5h62.7
					c1.4,0,2.5-1.1,2.5-2.5V793.3z"/>
			</g>
			<g>
				<path class="st4" d="M711.6,832c0,1.4,1.1,2.5,2.5,2.5h61.1c1.4,0,2.5-1.1,2.5-2.5v-8.2c0-1.4-1.1-2.5-2.5-2.5h-61.1
					c-1.4,0-2.5,1.1-2.5,2.5V832z"/>
				<path class="st4" d="M787.8,832c0,1.4,1.1,2.5,2.5,2.5h79.1c1.4,0,2.5-1.1,2.5-2.5v-8.2c0-1.4-1.1-2.5-2.5-2.5h-79.1
					c-1.4,0-2.5,1.1-2.5,2.5V832z"/>
				<path class="st4" d="M701.5,823.8c0-1.4-1.1-2.5-2.5-2.5h-82.4c-1.4,0-2.5,1.1-2.5,2.5v8.2c0,1.4,1.1,2.5,2.5,2.5H699
					c1.4,0,2.5-1.1,2.5-2.5V823.8z"/>
			</g>
			<g>
				<path class="st23" d="M653,862.5c0,1.4,1.1,2.5,2.5,2.5H744c1.4,0,2.5-1.1,2.5-2.5v-8.2c0-1.4-1.1-2.5-2.5-2.5h-88.5
					c-1.4,0-2.5,1.1-2.5,2.5V862.5z"/>
				<path class="st23" d="M756.6,862.5c0,1.4,1.1,2.5,2.5,2.5h44.5c1.4,0,2.5-1.1,2.5-2.5v-8.2c0-1.4-1.1-2.5-2.5-2.5h-44.5
					c-1.4,0-2.5,1.1-2.5,2.5V862.5z"/>
				<path class="st23" d="M642.9,854.2c0-1.4-1.1-2.5-2.5-2.5h-23.8c-1.4,0-2.5,1.1-2.5,2.5v8.2c0,1.4,1.1,2.5,2.5,2.5h23.8
					c1.4,0,2.5-1.1,2.5-2.5V854.2z"/>
			</g>
			<g>
				<path class="st4" d="M689.4,892.9c0,1.4,1.1,2.5,2.5,2.5h78.3c1.4,0,2.5-1.1,2.5-2.5v-8.2c0-1.4-1.1-2.5-2.5-2.5h-78.3
					c-1.4,0-2.5,1.1-2.5,2.5V892.9z"/>
				<path class="st4" d="M782.7,892.9c0,1.4,1.1,2.5,2.5,2.5h49.5c1.4,0,2.5-1.1,2.5-2.5v-8.2c0-1.4-1.1-2.5-2.5-2.5h-49.5
					c-1.4,0-2.5,1.1-2.5,2.5V892.9z"/>
				<path class="st4" d="M679.3,884.7c0-1.4-1.1-2.5-2.5-2.5h-60.2c-1.4,0-2.5,1.1-2.5,2.5v8.2c0,1.4,1.1,2.5,2.5,2.5h60.2
					c1.4,0,2.5-1.1,2.5-2.5V884.7z"/>
			</g>
			<g>
				<path class="st23" d="M712.3,923.4c0,1.4,1.1,2.5,2.5,2.5h113.5c1.4,0,2.5-1.1,2.5-2.5v-8.2c0-1.4-1.1-2.5-2.5-2.5H714.8
					c-1.4,0-2.5,1.1-2.5,2.5V923.4z"/>
				<path class="st23" d="M840.9,923.4c0,1.4,1.1,2.5,2.5,2.5H862c1.4,0,2.5-1.1,2.5-2.5v-8.2c0-1.4-1.1-2.5-2.5-2.5h-18.6
					c-1.4,0-2.5,1.1-2.5,2.5V923.4z"/>
				<path class="st23" d="M702.2,915.1c0-1.4-1.1-2.5-2.5-2.5h-83.1c-1.4,0-2.5,1.1-2.5,2.5v8.2c0,1.4,1.1,2.5,2.5,2.5h83.1
					c1.4,0,2.5-1.1,2.5-2.5V915.1z"/>
			</g>
			<g>
				<path class="st4" d="M711.6,1006.5c0-1.4,1.1-2.5,2.5-2.5h61.1c1.4,0,2.5,1.1,2.5,2.5v8.2c0,1.4-1.1,2.5-2.5,2.5h-61.1
					c-1.4,0-2.5-1.1-2.5-2.5V1006.5z"/>
				<path class="st4" d="M787.8,1006.5c0-1.4,1.1-2.5,2.5-2.5h79.1c1.4,0,2.5,1.1,2.5,2.5v8.2c0,1.4-1.1,2.5-2.5,2.5h-79.1
					c-1.4,0-2.5-1.1-2.5-2.5V1006.5z"/>
				<path class="st4" d="M701.5,1014.7c0,1.4-1.1,2.5-2.5,2.5h-82.4c-1.4,0-2.5-1.1-2.5-2.5v-8.2c0-1.4,1.1-2.5,2.5-2.5H699
					c1.4,0,2.5,1.1,2.5,2.5V1014.7z"/>
			</g>
			<g>
				<path class="st23" d="M653,976c0-1.4,1.1-2.5,2.5-2.5H744c1.4,0,2.5,1.1,2.5,2.5v8.2c0,1.4-1.1,2.5-2.5,2.5h-88.5
					c-1.4,0-2.5-1.1-2.5-2.5V976z"/>
				<path class="st23" d="M756.6,976c0-1.4,1.1-2.5,2.5-2.5h44.5c1.4,0,2.5,1.1,2.5,2.5v8.2c0,1.4-1.1,2.5-2.5,2.5h-44.5
					c-1.4,0-2.5-1.1-2.5-2.5V976z"/>
				<path class="st23" d="M642.9,984.3c0,1.4-1.1,2.5-2.5,2.5h-23.8c-1.4,0-2.5-1.1-2.5-2.5v-8.2c0-1.4,1.1-2.5,2.5-2.5h23.8
					c1.4,0,2.5,1.1,2.5,2.5V984.3z"/>
			</g>
			<g>
				<path class="st4" d="M689.4,945.6c0-1.4,1.1-2.5,2.5-2.5h78.3c1.4,0,2.5,1.1,2.5,2.5v8.2c0,1.4-1.1,2.5-2.5,2.5h-78.3
					c-1.4,0-2.5-1.1-2.5-2.5V945.6z"/>
				<path class="st4" d="M782.7,945.6c0-1.4,1.1-2.5,2.5-2.5h49.5c1.4,0,2.5,1.1,2.5,2.5v8.2c0,1.4-1.1,2.5-2.5,2.5h-49.5
					c-1.4,0-2.5-1.1-2.5-2.5V945.6z"/>
				<path class="st4" d="M679.3,953.8c0,1.4-1.1,2.5-2.5,2.5h-60.2c-1.4,0-2.5-1.1-2.5-2.5v-8.2c0-1.4,1.1-2.5,2.5-2.5h60.2
					c1.4,0,2.5,1.1,2.5,2.5V953.8z"/>
			</g>
			<g>
				<path class="st23" d="M712.3,1045.2c0,1.4,1.1,2.5,2.5,2.5h113.5c1.4,0,2.5-1.1,2.5-2.5v-8.2c0-1.4-1.1-2.5-2.5-2.5H714.8
					c-1.4,0-2.5,1.1-2.5,2.5V1045.2z"/>
				<path class="st23" d="M840.9,1045.2c0,1.4,1.1,2.5,2.5,2.5H862c1.4,0,2.5-1.1,2.5-2.5v-8.2c0-1.4-1.1-2.5-2.5-2.5h-18.6
					c-1.4,0-2.5,1.1-2.5,2.5V1045.2z"/>
				<path class="st23" d="M702.2,1036.9c0-1.4-1.1-2.5-2.5-2.5h-83.1c-1.4,0-2.5,1.1-2.5,2.5v8.2c0,1.4,1.1,2.5,2.5,2.5h83.1
					c1.4,0,2.5-1.1,2.5-2.5V1036.9z"/>
			</g>
			<g>
				<path class="st4" d="M711.6,1128.3c0-1.4,1.1-2.5,2.5-2.5h61.1c1.4,0,2.5,1.1,2.5,2.5v8.2c0,1.4-1.1,2.5-2.5,2.5h-61.1
					c-1.4,0-2.5-1.1-2.5-2.5V1128.3z"/>
				<path class="st4" d="M787.8,1128.3c0-1.4,1.1-2.5,2.5-2.5h79.1c1.4,0,2.5,1.1,2.5,2.5v8.2c0,1.4-1.1,2.5-2.5,2.5h-79.1
					c-1.4,0-2.5-1.1-2.5-2.5V1128.3z"/>
				<path class="st4" d="M701.5,1136.5c0,1.4-1.1,2.5-2.5,2.5h-82.4c-1.4,0-2.5-1.1-2.5-2.5v-8.2c0-1.4,1.1-2.5,2.5-2.5H699
					c1.4,0,2.5,1.1,2.5,2.5V1136.5z"/>
			</g>
			<g>
				<path class="st23" d="M653,1097.8c0-1.4,1.1-2.5,2.5-2.5H744c1.4,0,2.5,1.1,2.5,2.5v8.2c0,1.4-1.1,2.5-2.5,2.5h-88.5
					c-1.4,0-2.5-1.1-2.5-2.5V1097.8z"/>
				<path class="st23" d="M756.6,1097.8c0-1.4,1.1-2.5,2.5-2.5h44.5c1.4,0,2.5,1.1,2.5,2.5v8.2c0,1.4-1.1,2.5-2.5,2.5h-44.5
					c-1.4,0-2.5-1.1-2.5-2.5V1097.8z"/>
				<path class="st23" d="M642.9,1106.1c0,1.4-1.1,2.5-2.5,2.5h-23.8c-1.4,0-2.5-1.1-2.5-2.5v-8.2c0-1.4,1.1-2.5,2.5-2.5h23.8
					c1.4,0,2.5,1.1,2.5,2.5V1106.1z"/>
			</g>
			<g>
				<path class="st4" d="M689.4,1067.4c0-1.4,1.1-2.5,2.5-2.5h78.3c1.4,0,2.5,1.1,2.5,2.5v8.2c0,1.4-1.1,2.5-2.5,2.5h-78.3
					c-1.4,0-2.5-1.1-2.5-2.5V1067.4z"/>
				<path class="st4" d="M782.7,1067.4c0-1.4,1.1-2.5,2.5-2.5h49.5c1.4,0,2.5,1.1,2.5,2.5v8.2c0,1.4-1.1,2.5-2.5,2.5h-49.5
					c-1.4,0-2.5-1.1-2.5-2.5V1067.4z"/>
				<path class="st4" d="M679.3,1075.6c0,1.4-1.1,2.5-2.5,2.5h-60.2c-1.4,0-2.5-1.1-2.5-2.5v-8.2c0-1.4,1.1-2.5,2.5-2.5h60.2
					c1.4,0,2.5,1.1,2.5,2.5V1075.6z"/>
			</g>
			<g>
				<path class="st23" d="M712.3,1167c0,1.4,1.1,2.5,2.5,2.5h113.5c1.4,0,2.5-1.1,2.5-2.5v-8.2c0-1.4-1.1-2.5-2.5-2.5H714.8
					c-1.4,0-2.5,1.1-2.5,2.5V1167z"/>
				<path class="st23" d="M840.9,1167c0,1.4,1.1,2.5,2.5,2.5H862c1.4,0,2.5-1.1,2.5-2.5v-8.2c0-1.4-1.1-2.5-2.5-2.5h-18.6
					c-1.4,0-2.5,1.1-2.5,2.5V1167z"/>
				<path class="st23" d="M702.2,1158.8c0-1.4-1.1-2.5-2.5-2.5h-83.1c-1.4,0-2.5,1.1-2.5,2.5v8.2c0,1.4,1.1,2.5,2.5,2.5h83.1
					c1.4,0,2.5-1.1,2.5-2.5V1158.8z"/>
			</g>
			<g>
				<path class="st4" d="M711.6,1250.1c0-1.4,1.1-2.5,2.5-2.5h61.1c1.4,0,2.5,1.1,2.5,2.5v8.2c0,1.4-1.1,2.5-2.5,2.5h-61.1
					c-1.4,0-2.5-1.1-2.5-2.5V1250.1z"/>
				<path class="st4" d="M787.8,1250.1c0-1.4,1.1-2.5,2.5-2.5h79.1c1.4,0,2.5,1.1,2.5,2.5v8.2c0,1.4-1.1,2.5-2.5,2.5h-79.1
					c-1.4,0-2.5-1.1-2.5-2.5V1250.1z"/>
				<path class="st4" d="M701.5,1258.4c0,1.4-1.1,2.5-2.5,2.5h-82.4c-1.4,0-2.5-1.1-2.5-2.5v-8.2c0-1.4,1.1-2.5,2.5-2.5H699
					c1.4,0,2.5,1.1,2.5,2.5V1258.4z"/>
			</g>
			<g>
				<path class="st23" d="M653,1219.7c0-1.4,1.1-2.5,2.5-2.5H744c1.4,0,2.5,1.1,2.5,2.5v8.2c0,1.4-1.1,2.5-2.5,2.5h-88.5
					c-1.4,0-2.5-1.1-2.5-2.5V1219.7z"/>
				<path class="st23" d="M756.6,1219.7c0-1.4,1.1-2.5,2.5-2.5h44.5c1.4,0,2.5,1.1,2.5,2.5v8.2c0,1.4-1.1,2.5-2.5,2.5h-44.5
					c-1.4,0-2.5-1.1-2.5-2.5V1219.7z"/>
				<path class="st23" d="M642.9,1227.9c0,1.4-1.1,2.5-2.5,2.5h-23.8c-1.4,0-2.5-1.1-2.5-2.5v-8.2c0-1.4,1.1-2.5,2.5-2.5h23.8
					c1.4,0,2.5,1.1,2.5,2.5V1227.9z"/>
			</g>
			<g>
				<path class="st4" d="M711.6,1311c0-1.4,1.1-2.5,2.5-2.5h61.1c1.4,0,2.5,1.1,2.5,2.5v8.2c0,1.4-1.1,2.5-2.5,2.5h-61.1
					c-1.4,0-2.5-1.1-2.5-2.5V1311z"/>
				<path class="st4" d="M787.8,1311c0-1.4,1.1-2.5,2.5-2.5h79.1c1.4,0,2.5,1.1,2.5,2.5v8.2c0,1.4-1.1,2.5-2.5,2.5h-79.1
					c-1.4,0-2.5-1.1-2.5-2.5V1311z"/>
				<path class="st4" d="M701.5,1319.3c0,1.4-1.1,2.5-2.5,2.5h-82.4c-1.4,0-2.5-1.1-2.5-2.5v-8.2c0-1.4,1.1-2.5,2.5-2.5H699
					c1.4,0,2.5,1.1,2.5,2.5V1319.3z"/>
			</g>
			<g>
				<path class="st23" d="M653,1280.6c0-1.4,1.1-2.5,2.5-2.5H744c1.4,0,2.5,1.1,2.5,2.5v8.2c0,1.4-1.1,2.5-2.5,2.5h-88.5
					c-1.4,0-2.5-1.1-2.5-2.5V1280.6z"/>
				<path class="st23" d="M756.6,1280.6c0-1.4,1.1-2.5,2.5-2.5h44.5c1.4,0,2.5,1.1,2.5,2.5v8.2c0,1.4-1.1,2.5-2.5,2.5h-44.5
					c-1.4,0-2.5-1.1-2.5-2.5V1280.6z"/>
				<path class="st23" d="M642.9,1288.8c0,1.4-1.1,2.5-2.5,2.5h-23.8c-1.4,0-2.5-1.1-2.5-2.5v-8.2c0-1.4,1.1-2.5,2.5-2.5h23.8
					c1.4,0,2.5,1.1,2.5,2.5V1288.8z"/>
			</g>
			<g>
				<path class="st4" d="M689.4,1189.2c0-1.4,1.1-2.5,2.5-2.5h78.3c1.4,0,2.5,1.1,2.5,2.5v8.2c0,1.4-1.1,2.5-2.5,2.5h-78.3
					c-1.4,0-2.5-1.1-2.5-2.5V1189.2z"/>
				<path class="st4" d="M782.7,1189.2c0-1.4,1.1-2.5,2.5-2.5h49.5c1.4,0,2.5,1.1,2.5,2.5v8.2c0,1.4-1.1,2.5-2.5,2.5h-49.5
					c-1.4,0-2.5-1.1-2.5-2.5V1189.2z"/>
				<path class="st4" d="M679.3,1197.4c0,1.4-1.1,2.5-2.5,2.5h-60.2c-1.4,0-2.5-1.1-2.5-2.5v-8.2c0-1.4,1.1-2.5,2.5-2.5h60.2
					c1.4,0,2.5,1.1,2.5,2.5V1197.4z"/>
			</g>
		</g>
	</g>
	<g>
		<g>
			<path class="st23" d="M671.5,893.9l-26.5,3.3c-6,0.4-8.8,5.3-6.4,10.7l9.9,24.8L671.5,893.9z"/>
			<path class="st23" d="M838.1,1044.9l26.5-3.3c6-0.4,8.8-5.3,6.4-10.7l-9.9-24.8L838.1,1044.9z"/>
		</g>
		<g>
			<path class="st23" d="M650.7,926.9l-23.8,12.2c-5.5,2.5-6.5,8-2.3,12.3l17.8,19.9L650.7,926.9z"/>
			<path class="st23" d="M858.9,1011.8l23.8-12.2c5.5-2.5,6.5-8,2.3-12.3l-17.8-19.9L858.9,1011.8z"/>
		</g>
		<g>
			<path class="st23" d="M642.5,965.1l-18.2,19.6c-4.3,4.2-3.4,9.7,2,12.3l23.5,12.7L642.5,965.1z"/>
			<path class="st23" d="M867.2,973.6l18.2-19.6c4.3-4.2,3.4-9.7-2-12.3L859.9,929L867.2,973.6z"/>
		</g>
		<g>
			<path class="st23" d="M647.8,1003.8l-10.4,24.6c-2.6,5.4,0.1,10.3,6.1,10.9l26.4,3.9L647.8,1003.8z"/>
			<path class="st23" d="M861.8,935l10.4-24.6c2.6-5.4-0.2-10.3-6.1-10.9l-26.4-3.9L861.8,935z"/>
		</g>
		<g>
			<path class="st23" d="M666,1038.3l-1.3,26.7c-0.6,6,3.7,9.6,9.5,8.1l26.2-5.4L666,1038.3z"/>
			<path class="st23" d="M843.6,900.4l1.3-26.7c0.6-6-3.7-9.6-9.5-8.1l-26.2,5.4L843.6,900.4z"/>
		</g>
		<g>
			<path class="st23" d="M695,1064.5l7.9,25.5c1.5,5.8,6.7,7.8,11.7,4.4l22.7-14L695,1064.5z"/>
			<path class="st23" d="M814.7,874.2l-7.9-25.5c-1.5-5.8-6.7-7.8-11.7-4.4l-22.7,14L814.7,874.2z"/>
		</g>
		<g>
			<path class="st23" d="M731.1,1079.3l16.1,21.3c3.4,5,9,5,12.5,0.1l16.6-21L731.1,1079.3z"/>
			<path class="st23" d="M778.5,859.5l-16.1-21.3c-3.4-5-9-5-12.5-0.1l-16.6,21L778.5,859.5z"/>
		</g>
		<g>
			<path class="st23" d="M770.1,1080.7l22.4,14.5c4.9,3.5,10.2,1.6,11.8-4.2l8.4-25.4L770.1,1080.7z"/>
			<path class="st23" d="M739.5,858l-22.4-14.5c-4.9-3.5-10.2-1.6-11.8,4.2l-8.4,25.4L739.5,858z"/>
		</g>
		<g>
			<path class="st23" d="M807.3,1068.8l26,5.9c5.8,1.6,10.1-1.9,9.6-7.9l-0.8-26.7L807.3,1068.8z"/>
			<path class="st23" d="M702.4,870l-26.1-5.9c-5.8-1.6-10.1,1.9-9.6,7.9l0.8,26.7L702.4,870z"/>
		</g>
		<path class="st23" d="M815.4,867c56.2,33.2,74.8,105.6,41.6,161.8c-33.2,56.2-105.6,74.8-161.8,41.6
			c-56.2-33.2-74.8-105.6-41.6-161.8C686.7,852.4,759.2,833.8,815.4,867z"/>
		<path class="st4" d="M797,898.1c39,23,51.9,73.3,28.9,112.3s-73.3,51.9-112.3,28.9S661.7,966,684.7,927
			C707.7,887.9,758,875,797,898.1z"/>
		<path class="st29" d="M780.2,926.4c-23.3-13.8-53.4-6.1-67.2,17.3c-13.8,23.3-6.1,53.4,17.3,67.2c23.3,13.8,53.4,6.1,67.2-17.3
			C811.3,970.3,803.6,940.2,780.2,926.4z"/>
		<path class="st3" d="M767.7,947.6c-11.7-6.9-26.7-3-33.6,8.6c-6.9,11.7-3,26.7,8.6,33.6c11.6,6.9,26.7,3,33.6-8.6
			C783.2,969.5,779.4,954.5,767.7,947.6z"/>
	</g>
	<g>
		<g>
			<path class="st25" d="M319.2,973.8l-42.3,2c-9.5,0-14.6,7.3-11.3,16.2l12.6,40.4L319.2,973.8z"/>
			<path class="st25" d="M564.2,1232.6l42.3-2c9.5,0,14.6-7.3,11.3-16.2l-12.6-40.4L564.2,1232.6z"/>
		</g>
		<g>
			<path class="st25" d="M282.4,1023.5l-39.1,16.4c-9,3.2-11.3,11.8-5.1,19.1l25.7,33.7L282.4,1023.5z"/>
			<path class="st25" d="M601.1,1182.9l39.1-16.4c9-3.2,11.3-11.8,5.1-19.1l-25.7-33.7L601.1,1182.9z"/>
		</g>
		<g>
			<path class="st25" d="M264.7,1082.8l-31.1,28.7c-7.3,6.1-6.5,15,1.7,19.7l35.6,22.9L264.7,1082.8z"/>
			<path class="st25" d="M618.7,1123.6l31.1-28.7c7.3-6.1,6.5-15-1.7-19.7l-35.6-22.9L618.7,1123.6z"/>
		</g>
		<g>
			<path class="st25" d="M268.4,1144.5l-19.4,37.6c-4.8,8.2-1,16.3,8.4,17.9l41.3,9.3L268.4,1144.5z"/>
			<path class="st25" d="M615,1061.8l19.4-37.6c4.8-8.2,1-16.3-8.4-17.9l-41.3-9.3L615,1061.8z"/>
		</g>
		<g>
			<path class="st25" d="M293,1201.3l-5.4,42c-1.7,9.4,4.6,15.7,14,14l42-5.4L293,1201.3z"/>
			<path class="st25" d="M590.4,1005l5.4-42c1.7-9.4-4.6-15.7-14-14l-42,5.4L590.4,1005z"/>
		</g>
		<g>
			<path class="st25" d="M335.5,1246.3l9.3,41.3c1.6,9.4,9.7,13.1,17.9,8.4l37.6-19.4L335.5,1246.3z"/>
			<path class="st25" d="M547.9,960.1l-9.3-41.3c-1.6-9.4-9.7-13.1-17.9-8.4L483,929.8L547.9,960.1z"/>
		</g>
		<g>
			<path class="st25" d="M390.9,1274l22.9,35.6c4.7,8.3,13.6,9,19.7,1.7l28.7-31.1L390.9,1274z"/>
			<path class="st25" d="M492.5,932.4l-22.9-35.6c-4.7-8.3-13.6-9-19.7-1.7l-28.7,31.1L492.5,932.4z"/>
		</g>
		<g>
			<path class="st25" d="M452.4,1281l33.7,25.6c7.3,6.1,15.9,3.8,19.1-5.1l16.3-39.1L452.4,1281z"/>
			<path class="st25" d="M431.1,925.3l-33.7-25.6c-7.3-6.1-15.9-3.8-19.1,5.1L362,943.9L431.1,925.3z"/>
		</g>
		<g>
			<path class="st25" d="M512.6,1266.7l40.4,12.6c8.9,3.3,16.2-1.8,16.2-11.4l2-42.3L512.6,1266.7z"/>
			<path class="st25" d="M370.9,939.7l-40.5-12.6c-8.9-3.3-16.2,1.8-16.2,11.4l-2,42.3L370.9,939.7z"/>
		</g>
		<path class="st25" d="M549.8,948.7c84.7,59.3,105.4,176,46.1,260.8c-59.3,84.7-176,105.4-260.8,46.1
			c-84.7-59.3-105.4-176-46.1-260.8S465.1,889.4,549.8,948.7z"/>
		<path class="st4" d="M518.5,993.4c60.1,42,74.7,124.8,32.7,184.8c-42,60.1-124.8,74.7-184.8,32.7c-60.1-42-74.7-124.8-32.7-184.8
			C375.7,966,458.5,951.3,518.5,993.4z"/>
		<path class="st3" d="M480.2,1063.4c22,21.3,22.6,56.3,1.3,78.3c-21.3,22-56.3,22.6-78.3,1.3c-22-21.3-22.6-56.3-1.3-78.3
			C423.2,1042.7,458.2,1042.1,480.2,1063.4z"/>
	</g>
	<g>
		<g>
			<path class="st4" d="M917.2,961.7l-13.6-1.3c-3-0.5-5,1.6-4.4,4.7l2.1,13.5L917.2,961.7z"/>
			<path class="st4" d="M983.3,1055.9l13.6,1.3c3,0.5,5-1.6,4.4-4.7l-2.1-13.5L983.3,1055.9z"/>
		</g>
		<g>
			<path class="st4" d="M903,975.8l-13.3,3.4c-3,0.6-4.2,3.3-2.5,5.9l6.6,12L903,975.8z"/>
			<path class="st4" d="M997.4,1041.7l13.3-3.4c3-0.6,4.2-3.3,2.5-5.9l-6.6-12L997.4,1041.7z"/>
		</g>
		<g>
			<path class="st4" d="M894.6,994l-11.3,7.7c-2.6,1.6-2.8,4.5-0.4,6.4l10.3,9L894.6,994z"/>
			<path class="st4" d="M1005.9,1023.6l11.3-7.7c2.6-1.6,2.8-4.5,0.4-6.4l-10.3-9L1005.9,1023.6z"/>
		</g>
		<g>
			<path class="st4" d="M892.9,1013.9l-8,11.1c-1.9,2.4-1.1,5.2,1.8,6.1l12.8,4.9L892.9,1013.9z"/>
			<path class="st4" d="M1007.6,1003.7l8-11.1c1.9-2.4,1.1-5.2-1.8-6.1l-12.8-4.9L1007.6,1003.7z"/>
		</g>
		<g>
			<path class="st4" d="M898.1,1033.2l-3.7,13.2c-1,2.9,0.7,5.2,3.8,5.1l13.7,0.2L898.1,1033.2z"/>
			<path class="st4" d="M1002.4,984.4l3.7-13.2c1-2.9-0.7-5.2-3.8-5.1l-13.7-0.2L1002.4,984.4z"/>
		</g>
		<g>
			<path class="st4" d="M909.6,1049.6l1,13.6c0.1,3.1,2.5,4.7,5.3,3.5l12.9-4.4L909.6,1049.6z"/>
			<path class="st4" d="M990.9,968l-1-13.6c-0.1-3.1-2.5-4.7-5.3-3.5l-12.9,4.4L990.9,968z"/>
		</g>
		<g>
			<path class="st4" d="M926,1061l5.7,12.5c1.1,2.9,3.9,3.5,6.2,1.5l10.6-8.6L926,1061z"/>
			<path class="st4" d="M974.5,956.6l-5.6-12.5c-1.1-2.9-3.9-3.5-6.2-1.5l-10.6,8.6L974.5,956.6z"/>
		</g>
		<g>
			<path class="st4" d="M945.3,1066.1l9.6,9.8c2,2.3,4.9,2,6.3-0.7l7.1-11.7L945.3,1066.1z"/>
			<path class="st4" d="M955.2,951.5l-9.6-9.8c-2-2.3-4.9-2-6.3,0.7l-7.1,11.7L955.2,951.5z"/>
		</g>
		<g>
			<path class="st4" d="M965.2,1064.4l12.3,5.9c2.7,1.5,5.3,0.2,5.7-2.9l2.6-13.4L965.2,1064.4z"/>
			<path class="st4" d="M935.3,953.2l-12.3-5.9c-2.7-1.5-5.3-0.2-5.7,2.9l-2.6,13.4L935.3,953.2z"/>
		</g>
		<path class="st4" d="M992,964.5c24.3,22.9,25.4,61.2,2.5,85.5c-22.9,24.3-61.2,25.4-85.5,2.5s-25.4-61.2-2.5-85.5
			C929.5,942.7,967.7,941.6,992,964.5z"/>
		<path class="st4" d="M979.9,977.3c17.2,16.2,18,43.4,1.8,60.6s-43.4,18-60.6,1.8c-17.2-16.2-18-43.4-1.8-60.6
			C935.6,961.9,962.7,961.1,979.9,977.3z"/>
		<path class="st3" d="M964.4,997.9c6,7.8,4.6,19-3.3,25.1c-7.8,6-19,4.6-25.1-3.3c-6-7.8-4.6-19.1,3.3-25.1
			S958.4,990.1,964.4,997.9z"/>
	</g>
	<g>
		<g>
			<path class="st4" d="M195.7,768.7l-23,2.9c-5.2,0.4-7.7,4.6-5.5,9.3l8.5,21.5L195.7,768.7z"/>
			<path class="st4" d="M339.9,899.5l23-2.9c5.2-0.4,7.7-4.6,5.5-9.3l-8.5-21.5L339.9,899.5z"/>
		</g>
		<g>
			<path class="st4" d="M177.7,797.4l-20.6,10.5c-4.7,2.1-5.6,6.9-2,10.6l15.4,17.3L177.7,797.4z"/>
			<path class="st4" d="M357.9,870.9l20.6-10.5c4.7-2.1,5.6-6.9,2-10.6l-15.4-17.3L357.9,870.9z"/>
		</g>
		<g>
			<path class="st4" d="M170.5,830.4l-15.7,17c-3.7,3.6-2.9,8.4,1.8,10.7l20.4,11L170.5,830.4z"/>
			<path class="st4" d="M365.1,837.9l15.7-16.9c3.7-3.6,2.9-8.4-1.8-10.7l-20.4-11L365.1,837.9z"/>
		</g>
		<g>
			<path class="st4" d="M175.1,863.9l-9,21.3c-2.3,4.7,0.1,8.9,5.3,9.4l22.9,3.4L175.1,863.9z"/>
			<path class="st4" d="M360.5,804.4l9-21.3c2.3-4.7-0.1-8.9-5.3-9.4l-22.9-3.3L360.5,804.4z"/>
		</g>
		<g>
			<path class="st4" d="M190.9,893.8l-1.2,23.1c-0.5,5.2,3.2,8.3,8.2,7l22.7-4.7L190.9,893.8z"/>
			<path class="st4" d="M344.7,774.5l1.2-23.1c0.5-5.2-3.2-8.3-8.2-7l-22.7,4.7L344.7,774.5z"/>
		</g>
		<g>
			<path class="st4" d="M215.9,916.5l6.8,22.1c1.3,5,5.8,6.8,10.1,3.8l19.7-12.2L215.9,916.5z"/>
			<path class="st4" d="M319.7,751.8l-6.8-22.1c-1.3-5-5.8-6.8-10.1-3.8l-19.7,12.2L319.7,751.8z"/>
		</g>
		<g>
			<path class="st4" d="M247.2,929.3l14,18.4c2.9,4.3,7.8,4.4,10.8,0.1l14.3-18.2L247.2,929.3z"/>
			<path class="st4" d="M288.4,739l-14-18.5c-2.9-4.3-7.8-4.4-10.8-0.1l-14.3,18.1L288.4,739z"/>
		</g>
		<g>
			<path class="st4" d="M281,930.6l19.4,12.6c4.2,3,8.8,1.4,10.2-3.6l7.3-22L281,930.6z"/>
			<path class="st4" d="M254.6,737.7l-19.4-12.6c-4.2-3-8.8-1.4-10.2,3.6l-7.3,22L254.6,737.7z"/>
		</g>
		<g>
			<path class="st4" d="M313.2,920.2l22.6,5.2c5,1.4,8.8-1.7,8.4-6.9l-0.7-23.1L313.2,920.2z"/>
			<path class="st4" d="M222.4,748l-22.6-5.2c-5-1.4-8.8,1.7-8.4,6.9l0.7,23.1L222.4,748z"/>
		</g>
		<path class="st4" d="M320.3,745.5c48.6,28.8,64.7,91.5,36,140.1c-28.8,48.6-91.5,64.7-140.1,36c-48.6-28.8-64.7-91.5-36-140.1
			C208.9,732.8,271.6,716.7,320.3,745.5z"/>
		<path class="st4" d="M305.1,771.1c34.5,20.4,45.9,64.8,25.5,99.3s-64.8,45.9-99.3,25.5s-45.9-64.8-25.5-99.3
			C226.2,762.2,270.6,750.7,305.1,771.1z"/>
		<path class="st3" d="M294.8,801.7c17.9,14.9,20.4,41.5,5.5,59.4s-41.5,20.4-59.4,5.5s-20.4-41.5-5.5-59.4
			C250.2,789.2,276.8,786.8,294.8,801.7z"/>
	</g>
	<g>
		<g>
			<path class="st30" d="M810.4,973.2c-40.8,0-74,33.1-74,73.9v85.6v33.6v77.9l-0.1,85.6c0,40.8-33.1,73.9-73.9,73.9h358.5
				c40.8,0,74-33.1,74-73.9v-47v-38.6v-77.9l0.1-119.1c0-40.8,33.1-73.9,73.9-73.9L810.4,973.2L810.4,973.2z"/>
		</g>
		<path class="st28" d="M1172.4,973.2H813.9c40.8,0,73.9,33.1,73.9,73.9l0.1,85.6v135.2c0,8.1,6.7,14.8,14.8,14.8h328.8
			c8.1,0,14.8-6.7,14.8-14.8v-135.2v-17.4v-68.1C1246.3,1006.3,1213.2,973.2,1172.4,973.2z"/>
		<g>
			<g>
				<path class="st4" d="M1037.9,1045.2c0,1.4,1.1,2.5,2.5,2.5h55.4c1.4,0,2.5-1.1,2.5-2.5v-8.2c0-1.4-1.1-2.5-2.5-2.5h-55.4
					c-1.4,0-2.5,1.1-2.5,2.5L1037.9,1045.2L1037.9,1045.2z"/>
				<path class="st4" d="M1108.3,1045.2c0,1.4,1.1,2.5,2.5,2.5h18.6c1.4,0,2.5-1.1,2.5-2.5v-8.2c0-1.4-1.1-2.5-2.5-2.5h-18.6
					c-1.4,0-2.5,1.1-2.5,2.5V1045.2z"/>
				<path class="st4" d="M1027.8,1036.9c0-1.4-1.1-2.5-2.5-2.5H920.1c-1.4,0-2.5,1.1-2.5,2.5v8.2c0,1.4,1.1,2.5,2.5,2.5h105.2
					c1.4,0,2.5-1.1,2.5-2.5L1027.8,1036.9L1027.8,1036.9z"/>
			</g>
			<g>
				<path class="st23" d="M995.4,1075.6c0,1.4,1.1,2.5,2.5,2.5h47.2c1.4,0,2.5-1.1,2.5-2.5v-8.2c0-1.4-1.1-2.5-2.5-2.5h-47.2
					c-1.4,0-2.5,1.1-2.5,2.5V1075.6z"/>
				<path class="st23" d="M1057.7,1075.6c0,1.4,1.1,2.5,2.5,2.5h54.8c1.4,0,2.5-1.1,2.5-2.5v-8.2c0-1.4-1.1-2.5-2.5-2.5h-54.8
					c-1.4,0-2.5,1.1-2.5,2.5L1057.7,1075.6L1057.7,1075.6z"/>
				<path class="st23" d="M985.3,1067.4c0-1.4-1.1-2.5-2.5-2.5h-62.7c-1.4,0-2.5,1.1-2.5,2.5v8.2c0,1.4,1.1,2.5,2.5,2.5h62.7
					c1.4,0,2.5-1.1,2.5-2.5V1067.4z"/>
			</g>
			<g>
				<path class="st4" d="M1015.1,1106.1c0,1.4,1.1,2.5,2.5,2.5h61.1c1.4,0,2.5-1.1,2.5-2.5v-8.2c0-1.4-1.1-2.5-2.5-2.5h-61.1
					c-1.4,0-2.5,1.1-2.5,2.5V1106.1z"/>
				<path class="st4" d="M1091.3,1106.1c0,1.4,1.1,2.5,2.5,2.5h79.1c1.4,0,2.5-1.1,2.5-2.5v-8.2c0-1.4-1.1-2.5-2.5-2.5h-79.1
					c-1.4,0-2.5,1.1-2.5,2.5V1106.1z"/>
				<path class="st4" d="M1005,1097.8c0-1.4-1.1-2.5-2.5-2.5h-82.4c-1.4,0-2.5,1.1-2.5,2.5v8.2c0,1.4,1.1,2.5,2.5,2.5h82.4
					c1.4,0,2.5-1.1,2.5-2.5V1097.8z"/>
			</g>
			<g>
				<path class="st23" d="M956.5,1136.5c0,1.4,1.1,2.5,2.5,2.5h88.5c1.4,0,2.5-1.1,2.5-2.5v-8.2c0-1.4-1.1-2.5-2.5-2.5H959
					c-1.4,0-2.5,1.1-2.5,2.5V1136.5z"/>
				<path class="st23" d="M1060.1,1136.5c0,1.4,1.1,2.5,2.5,2.5h44.5c1.4,0,2.5-1.1,2.5-2.5v-8.2c0-1.4-1.1-2.5-2.5-2.5h-44.5
					c-1.4,0-2.5,1.1-2.5,2.5V1136.5z"/>
				<path class="st23" d="M946.4,1128.3c0-1.4-1.1-2.5-2.5-2.5h-23.8c-1.4,0-2.5,1.1-2.5,2.5v8.2c0,1.4,1.1,2.5,2.5,2.5h23.8
					c1.4,0,2.5-1.1,2.5-2.5V1128.3z"/>
			</g>
			<g>
				<path class="st4" d="M992.9,1167c0,1.4,1.1,2.5,2.5,2.5h78.3c1.4,0,2.5-1.1,2.5-2.5v-8.2c0-1.4-1.1-2.5-2.5-2.5h-78.3
					c-1.4,0-2.5,1.1-2.5,2.5V1167z"/>
				<path class="st4" d="M1086.2,1167c0,1.4,1.1,2.5,2.5,2.5h49.5c1.4,0,2.5-1.1,2.5-2.5v-8.2c0-1.4-1.1-2.5-2.5-2.5h-49.5
					c-1.4,0-2.5,1.1-2.5,2.5V1167z"/>
				<path class="st4" d="M982.8,1158.8c0-1.4-1.1-2.5-2.5-2.5h-60.2c-1.4,0-2.5,1.1-2.5,2.5v8.2c0,1.4,1.1,2.5,2.5,2.5h60.2
					c1.4,0,2.5-1.1,2.5-2.5V1158.8z"/>
			</g>
			<g>
				<path class="st23" d="M1015.8,1197.4c0,1.4,1.1,2.5,2.5,2.5h113.5c1.4,0,2.5-1.1,2.5-2.5v-8.2c0-1.4-1.1-2.5-2.5-2.5h-113.5
					c-1.4,0-2.5,1.1-2.5,2.5V1197.4z"/>
				<path class="st23" d="M1144.4,1197.4c0,1.4,1.1,2.5,2.5,2.5h18.6c1.4,0,2.5-1.1,2.5-2.5v-8.2c0-1.4-1.1-2.5-2.5-2.5h-18.6
					c-1.4,0-2.5,1.1-2.5,2.5V1197.4z"/>
				<path class="st23" d="M1005.7,1189.2c0-1.4-1.1-2.5-2.5-2.5h-83.1c-1.4,0-2.5,1.1-2.5,2.5v8.2c0,1.4,1.1,2.5,2.5,2.5h83.1
					c1.4,0,2.5-1.1,2.5-2.5V1189.2z"/>
			</g>
			<g>
				<path class="st23" d="M956.5,1250.1c0-1.4,1.1-2.5,2.5-2.5h88.5c1.4,0,2.5,1.1,2.5,2.5v8.2c0,1.4-1.1,2.5-2.5,2.5H959
					c-1.4,0-2.5-1.1-2.5-2.5V1250.1z"/>
				<path class="st23" d="M1060.1,1250.1c0-1.4,1.1-2.5,2.5-2.5h44.5c1.4,0,2.5,1.1,2.5,2.5v8.2c0,1.4-1.1,2.5-2.5,2.5h-44.5
					c-1.4,0-2.5-1.1-2.5-2.5V1250.1z"/>
				<path class="st23" d="M946.4,1258.3c0,1.4-1.1,2.5-2.5,2.5h-23.8c-1.4,0-2.5-1.1-2.5-2.5v-8.2c0-1.4,1.1-2.5,2.5-2.5h23.8
					c1.4,0,2.5,1.1,2.5,2.5V1258.3z"/>
			</g>
			<g>
				<path class="st4" d="M992.9,1219.7c0-1.4,1.1-2.5,2.5-2.5h78.3c1.4,0,2.5,1.1,2.5,2.5v8.2c0,1.4-1.1,2.5-2.5,2.5h-78.3
					c-1.4,0-2.5-1.1-2.5-2.5V1219.7z"/>
				<path class="st4" d="M1086.2,1219.7c0-1.4,1.1-2.5,2.5-2.5h49.5c1.4,0,2.5,1.1,2.5,2.5v8.2c0,1.4-1.1,2.5-2.5,2.5h-49.5
					c-1.4,0-2.5-1.1-2.5-2.5V1219.7z"/>
				<path class="st4" d="M982.8,1227.9c0,1.4-1.1,2.5-2.5,2.5h-60.2c-1.4,0-2.5-1.1-2.5-2.5v-8.2c0-1.4,1.1-2.5,2.5-2.5h60.2
					c1.4,0,2.5,1.1,2.5,2.5V1227.9z"/>
			</g>
		</g>
	</g>
	<g>
		<rect x="385.3" y="92.4" class="st25" width="193.4" height="260.5"/>
		<g>
			<g>
				<g>
					<rect x="402.5" y="115.3" class="st3" width="22.2" height="22.2"/>
					<g>
						<polygon class="st4" points="413.4,134.4 401.9,122.9 405.3,119.4 413.4,127.5 430.8,110.1 434.2,113.5 						"/>
					</g>
				</g>
				<g>
					<rect x="441.2" y="115.3" class="st31" width="121" height="7.6"/>
					<rect x="441.2" y="129.8" class="st31" width="93.1" height="7.6"/>
				</g>
			</g>
			<g>
				<g>
					<rect x="402.5" y="164.7" class="st3" width="22.2" height="22.2"/>
					<g>
						<polygon class="st4" points="413.4,183.8 401.9,172.3 405.3,168.9 413.4,177 430.8,159.5 434.2,162.9 						"/>
					</g>
				</g>
				<g>
					<rect x="441.2" y="164.7" class="st31" width="121" height="7.6"/>
					<rect x="441.2" y="179.3" class="st31" width="93.1" height="7.6"/>
				</g>
			</g>
			<g>
				<g>
					<rect x="402.5" y="214.1" class="st3" width="22.2" height="22.2"/>
					<g>
						<polygon class="st4" points="413.4,233.2 401.9,221.7 405.3,218.3 413.4,226.4 430.8,209 434.2,212.4 						"/>
					</g>
				</g>
				<g>
					<rect x="441.2" y="214.1" class="st31" width="121" height="7.6"/>
					<rect x="441.2" y="228.7" class="st31" width="93.1" height="7.6"/>
				</g>
			</g>
			<g>
				<g>
					<rect x="402.5" y="263.6" class="st3" width="22.2" height="22.2"/>
					<g>
						<polygon class="st4" points="413.4,282.7 401.9,271.2 405.3,267.8 413.4,275.8 430.8,258.4 434.2,261.8 						"/>
					</g>
				</g>
				<g>
					<rect x="441.2" y="263.6" class="st31" width="121" height="7.6"/>
					<rect x="441.2" y="278.1" class="st31" width="93.1" height="7.6"/>
				</g>
			</g>
			<g>
				<g>
					<rect x="402.5" y="313" class="st3" width="22.2" height="22.2"/>
					<g>
						<polygon class="st4" points="413.4,332.1 401.9,320.6 405.3,317.2 413.4,325.3 430.8,307.8 434.2,311.3 						"/>
					</g>
				</g>
				<g>
					<rect x="441.2" y="313" class="st31" width="121" height="7.6"/>
					<rect x="441.2" y="327.6" class="st31" width="93.1" height="7.6"/>
				</g>
			</g>
		</g>
		<g>
			<rect x="385.3" y="67.2" class="st4" width="193.4" height="25.2"/>
			<g>
				<path class="st3" d="M568.2,79.8c0-2.4-1.9-4.3-4.3-4.3c-2.4,0-4.3,1.9-4.3,4.3s1.9,4.3,4.3,4.3
					C566.2,84.1,568.2,82.2,568.2,79.8z"/>
				<path class="st32" d="M543.9,79.8c0-2.4-1.9-4.3-4.3-4.3c-2.4,0-4.3,1.9-4.3,4.3s1.9,4.3,4.3,4.3
					C542,84.1,543.9,82.2,543.9,79.8z"/>
				<path class="st33" d="M519.6,79.8c0-2.4-1.9-4.3-4.3-4.3c-2.4,0-4.3,1.9-4.3,4.3s1.9,4.3,4.3,4.3
					C517.7,84.1,519.6,82.2,519.6,79.8z"/>
			</g>
		</g>
	</g>
</g>
</svg>
